<svg xmlns="http://www.w3.org/2000/svg" viewBox="0 0 84.232 100" fill="currentColor"><path d="M82.467 77.93c-1.512 3.494-3.302 6.71-5.376 9.666-2.827 4.031-5.142 6.821-6.926 8.37-2.765 2.543-5.728 3.846-8.901 3.92-2.278 0-5.025-.648-8.222-1.963-3.208-1.309-6.156-1.957-8.852-1.957-2.827 0-5.859.648-9.102 1.957-3.248 1.315-5.865 2-7.865 2.068-3.043.13-6.075-1.21-9.102-4.025-1.932-1.685-4.349-4.574-7.244-8.666-2.907-4.094-5.461-9.161-7.461-14.938C1.074 65.844 0 59.801 0 53.951c0-6.702 1.448-12.482 4.349-17.326 2.28-3.891 5.312-6.96 9.108-9.213 3.795-2.253 7.897-3.401 12.313-3.475 2.417 0 5.586.748 9.524 2.217 3.927 1.474 6.449 2.222 7.554 2.222.827 0 3.628-.874 8.377-2.617 4.49-1.616 8.28-2.285 11.385-2.022 8.413.679 14.734 3.996 18.938 9.971-7.524 4.559-11.247 10.945-11.173 19.136.068 6.381 2.383 11.69 6.932 15.906a25.7 25.7 0 0 0 6.926 4.543 59.57 59.57 0 0 1-1.765 4.636zM63.171 2.001c0 5.001-1.827 9.67-5.469 13.993-4.395 5.138-9.71 8.107-15.475 7.639a15.4 15.4 0 0 1-.116-1.895c0-4.801 2.09-9.939 5.802-14.14a22.48 22.48 0 0 1 5.214-4.349C57.832.9 60.53.132 63.066 0c.074.669.105 1.337.105 2.001z"/></svg>
