<svg xmlns="http://www.w3.org/2000/svg" xml:space="preserve" width="100" height="100" viewBox="0 0 26.458 26.458"><defs><marker id="a" markerHeight=".5" markerWidth=".5" orient="auto-start-reverse" preserveAspectRatio="xMidYMid" refX="0" refY="0" style="overflow:visible" viewBox="0 0 1 1"><path d="m5.77 0-8.65 5V-5Z" style="fill:context-stroke;fill-rule:evenodd;stroke:context-stroke;stroke-width:1pt" transform="scale(.5)"/></marker></defs><g style="stroke-width:.34108379;stroke-dasharray:none"><path d="M28.386 7.175s-6.24 5.874-12.411 3.72c-6.172-2.155-8.326-5.91-8.326-5.91s-2.3 6.667-4.804 7.57C.34 13.456-.27 12.35-2.745 9.7m-.015.003s5.2 6.284 10.548 6.736c5.35.452 9.041-2.26 11.301-4.332 0 0 2.688 4.793 4.91 2.796s3.085-3.466 4.418-7.788" style="fill:none;fill-opacity:1;stroke:currentColor;stroke-width:.34108379;stroke-dasharray:none" transform="translate(3.269 2.842)scale(.77571)"/><path d="M-2.722 9.749s5.136 6.897 10.057 8.58c4.92 1.685 6.21 1.422 8.368 1.027 2.157-.395 6.104-2.052 8.946-4.947s3.75-7.276 3.75-7.276" style="fill:none;fill-opacity:1;stroke:currentColor;stroke-width:.34108379;stroke-dasharray:none" transform="translate(3.269 2.842)scale(.77571)"/><path d="M13.107 15.802V8.4" style="fill:none;fill-opacity:1;stroke:currentColor;stroke-width:.34108379;stroke-dasharray:none;marker-end:url(#a)" transform="translate(3.269 2.842)scale(.77571)"/><path d="m12.192 19.623-3.803 2.252" style="fill:currentColor;fill-opacity:.254545;stroke:currentColor;stroke-width:.34108379;stroke-dasharray:none;marker-end:url(#a)" transform="translate(3.269 2.842)scale(.77571)"/><path d="m2.668 17.903 5.23.652m7.228.901 8.107 1.011" style="fill:currentColor;fill-opacity:.254545;stroke:currentColor;stroke-width:.34108379;stroke-dasharray:none;marker-start:url(#a);marker-end:url(#a)" transform="translate(3.269 2.842)scale(.77571)"/></g></svg>
