<svg width="100" height="100" viewBox="0 0 26.458 26.458" xmlns="http://www.w3.org/2000/svg"><defs><marker id="a" markerHeight="0.5" markerWidth="0.5" orient="auto-start-reverse" preserveAspectRatio="xMidYMid" refX="0" refY="0" style="overflow:visible" viewBox="0 0 1 1"><path d="m5.77 0-8.65 5V-5Z" style="fill:context-stroke;fill-rule:evenodd;stroke:context-stroke;stroke-width:1pt" transform="scale(.5)"/></marker><marker id="Triangle" markerHeight="0.5" markerWidth="0.5" orient="auto-start-reverse" preserveAspectRatio="xMidYMid" refX="0" refY="0" style="overflow:visible" viewBox="0 0 1 1"><path transform="scale(0.5)" style="fill:context-stroke;fill-rule:evenodd;stroke:context-stroke;stroke-width:1pt" d="M 5.77,0 -2.88,5 V -5 Z"/></marker><marker id="marker25" markerHeight="0.5" markerWidth="0.5" orient="auto-start-reverse" preserveAspectRatio="xMidYMid" refX="0" refY="0" style="overflow:visible" viewBox="0 0 1 1"><path transform="scale(0.5)" style="fill:context-stroke;fill-rule:evenodd;stroke:context-stroke;stroke-width:1pt" d="M 5.77,0 -2.88,5 V -5 Z"/></marker><marker id="marker24" markerHeight="0.5" markerWidth="0.5" orient="auto-start-reverse" preserveAspectRatio="xMidYMid" refX="0" refY="0" style="overflow:visible" viewBox="0 0 1 1"><path transform="scale(0.5)" style="fill:context-stroke;fill-rule:evenodd;stroke:context-stroke;stroke-width:1pt" d="M 5.77,0 -2.88,5 V -5 Z"/></marker></defs><path d="M1.59 2.218v7.777h.016a3.463.781 0 0 1 3.464-.782 3.463.781 0 0 1 3.462.782V2.218a3.538.781 0 0 1-.01.01 3.463.781 0 0 1-3.46.771A3.463.781 0 0 1 1.6 2.227a3.538.781 0 0 1-.01-.009Z" style="fill:currentColor;fill-opacity:.3;stroke:none;stroke-width:.264583;stroke-linecap:square;stroke-dasharray:none;stroke-opacity:1"/><ellipse cx="5.061" cy="9.995" rx="3.463" ry=".781" style="fill:currentColor;fill-opacity:.3;stroke:currentColor;stroke-width:.264583;stroke-linecap:square;stroke-dasharray:none;stroke-opacity:1"/><ellipse cx="5.061" cy="2.218" rx="3.463" ry=".781" style="fill:currentColor;fill-opacity:.3;stroke:currentColor;stroke-width:.264583;stroke-linecap:square;stroke-dasharray:none;stroke-opacity:1"/><path d="M1.597 2.35v7.527m6.935-7.574V9.83" style="fill:currentColor;fill-opacity:.3;stroke:currentColor;stroke-width:.262364;stroke-linecap:square;stroke-dasharray:none;stroke-opacity:1"/><path d="M18.181 1.491h6.355v9.15h-6.355z" style="fill:currentColor;fill-opacity:.3;stroke:currentColor;stroke-width:.264583;stroke-linecap:square;stroke-dasharray:none;stroke-opacity:1"/><path d="M10.19 6.067h5.822" style="fill:currentColor;stroke:currentColor;stroke-width:.4;stroke-linecap:square;marker-end:url(#a)"/><path d="M19.337 1.491v9.15m5.193-8.177h-6.349m2.48-.973v9.15m1.324-9.15v9.15m1.324-9.15v9.15" style="fill:currentColor;fill-opacity:.3;stroke:currentColor;stroke-width:.264583;stroke-linecap:square;stroke-dasharray:none;stroke-opacity:1"/><path d="m13.363 14.585-1.285 2.282" style="fill:none;stroke:currentColor;stroke-width:0.195921;stroke-linecap:square;stroke-opacity:1;marker-end:url(#marker25)"/><path d="m13.363 14.585 1.245 2.192" style="fill:none;stroke:currentColor;stroke-width:0.195921;stroke-linecap:square;stroke-opacity:1;marker-end:url(#Triangle)"/><path d="m11.51 17.665-1.095 2.156" style="fill:none;stroke:currentColor;stroke-width:0.195921;stroke-linecap:square;stroke-opacity:1;marker-end:url(#marker25)"/><path d="m11.51 17.665 1.116 2.17" style="fill:none;stroke:currentColor;stroke-width:0.195921;stroke-linecap:square;stroke-opacity:1;marker-end:url(#marker25)"/><circle cx="13.363" cy="14.585" r=".662" style="fill:currentColor"/><circle cx="11.509" cy="17.665" r=".662" style="fill:currentColor"/><circle cx="9.982" cy="20.72" r=".662" style="fill:currentColor"/><circle cx="13.037" cy="20.72" r=".662" style="fill:currentColor"/><circle cx="-14.985" cy="17.665" r=".662" transform="scale(-1 1)" style="fill:currentColor"/><path d="m12.951 20.859-1.093 2.155" style="fill:none;stroke:currentColor;stroke-width:0.195921;stroke-linecap:square;stroke-opacity:1;marker-end:url(#marker25)"/><path d="m13.169 20.852 1.117 2.17" style="fill:none;stroke:currentColor;stroke-width:0.195921;stroke-linecap:square;stroke-opacity:1;marker-end:url(#marker25)"/><circle cx="11.472" cy="23.9" r=".662" style="fill:currentColor"/><circle cx="14.612" cy="23.96" r=".662" style="fill:currentColor"/><path d="M13.317 12.453V7.99" style="fill:currentColor;stroke:currentColor;stroke-width:.4;stroke-linecap:square;marker-end:url(#a)"/><path style="fill:none;stroke:currentColor;stroke-width:0.400045;marker-end:url(#marker24)" d="m21.625945 11.806162v7.385151l-4.209353.0094"/></svg>
