<svg xmlns="http://www.w3.org/2000/svg" xml:space="preserve" id="svg12" width="100" height="100" version="1.1" viewBox="0 0 26.458 26.458"><defs id="defs12"><path id="m149c3c1ad6" d="M26.362-226.384h-.01V-141.334h68.262l-1.335-.428-1.325-.427-1.315-.428-1.304-.427-1.292-.427-1.282-.428-1.269-.427-1.257-.427-1.243-.428-1.232-.427-1.217-.428-1.204-.427-1.19-.427-1.175-.428-1.162-.427-1.146-.428-1.132-.427-1.116-.427-1.1-.428-1.087-.427-1.07-.427-1.053-.428-1.039-.427-1.022-.428-1.006-.427-.99-.427-.973-.428-.958-.427-.94-.428-.925-.427-.908-.427-.892-.428-.875-.427-.86-.428-.842-.427-.826-.427-.81-.428-.794-.427-.778-.427-.762-.428-.745-.427-.73-.428-.715-.427-.698-.427-.684-.428-.667-.427-.653-.428-.638-.427-.622-.427-.608-.428-.594-.427-.579-.427-.565-.428-.55-.427-.538-.428-.523-.427-.51-.427-.496-.428-.484-.427-.47-.428-.459-.427-.445-.427-.433-.428-.422-.427-.41-.428-.397-.427-.387-.427-.375-.428-.364-.427-.354-.427-.343-.428-.333-.427-.322-.428-.313-.427-.303-.427-.294-.428-.285-.427-.275-.428-.267-.427-.258-.427-.25-.428-.24-.427-.234-.427-.226-.428-.218-.427-.21-.428-.204-.427-.197-.427-.19-.428-.182-.427-.177-.428-.17-.427-.164-.427-.158-.428-.153-.427-.147-.428-.141-.427-.136-.427-.131-.428-.127-.427-.121-.427-.117-.428-.112-.427-.108-.428-.104-.427-.1-.427-.095-.428-.092-.427-.088-.428-.084-.427-.081-.427-.078-.428-.075-.427-.072-.427-.068-.428-.066-.427-.063-.428-.06-.427-.058-.427-.055-.428-.053-.427-.05-.428-.048-.427-.047-.427-.044-.428-.042-.427-.04-.427-.039-.428-.036-.427-.035-.428-.034-.427-.032-.427-.03-.428-.03-.427-.027-.428-.026-.427-.025-.427-.024-.428-.023-.427-.022-.428-.02-.427-.02-.427-.018-.428-.018-.427-.017-.427-.016-.428-.015-.427-.015-.428-.013-.427-.013-.427-.013-.428-.011-.427-.012-.428-.01-.427-.01-.427-.01-.428-.009-.427-.008-.427-.008-.428-.008-.427-.007-.428-.007-.427-.006-.427-.006-.428-.006-.427-.006-.428-.005-.427-.005-.427-.004-.428-.005-.427-.004-.428-.004-.427-.003-.427-.004-.428-.003-.427-.003-.427-.003-.428-.003-.427-.002-.428-.003-.427-.002-.427-.002-.428-.002-.427-.002-.428-.002-.427-.002-.427-.001-.428-.002-.427-.001-.427-.001-.428-.002-.427v-.428l-.002-.427v-.427l-.002-.428v-.427l-.002-.428v-.427l-.001-.427z" style="stroke:#4682b4;stroke-opacity:.2"/><path id="mc7db9fdffb" d="M0 0v-4" style="stroke:currentColor;stroke-width:.5"/><path id="m5a7d422ac3" d="M0 0v4" style="stroke:currentColor;stroke-width:.5"/><path id="CMR17-48" d="M42 31.64c0 6.11-.094 16.485-4.297 24.47-3.703 7-9.61 9.484-14.797 9.484-4.812 0-10.906-2.188-14.703-9.39-4-7.485-4.406-16.767-4.406-24.563 0-5.688.11-14.36 3.203-21.97C11.297-.608 19-2 22.906-2 27.5-2 34.5-.11 38.594 9.375c3 6.906 3.406 14.984 3.406 22.266M22.906-.406c-6.406 0-10.203 5.484-11.61 13.094-1.093 5.874-1.093 14.468-1.093 20.062 0 7.688 0 14.078 1.297 20.172C13.406 61.39 19 64 22.906 64c4.094 0 9.39-2.703 11.297-10.875 1.297-5.688 1.39-12.39 1.39-20.375 0-6.5 0-14.484-1.187-20.375-2.11-10.89-8-12.781-11.5-12.781"/><path id="CMMI12-58" d="M18.406 4.797c0 2.89-2.406 4.875-4.812 4.875-2.89 0-4.89-2.39-4.89-4.781C8.703 2 11.093 0 13.5 0c2.906 0 4.906 2.39 4.906 4.797"/><path id="CMR17-49" d="M26.594 63.406c0 2.094-.094 2.094-1.5 2.094-3.89-4.313-9.797-5.703-15.39-5.703-.298 0-.798 0-.907-.297-.094-.203-.094-.406-.094-2.5C11.797 57 17 57.594 21 59.984V7.204c0-3.516-.203-4.704-8.797-4.704h-3V0h29.204v2.5h-3c-8.61 0-8.813 1.094-8.813 4.656z"/><path id="CMR17-50" d="M41.703 15.453h-1.797c-1-7.078-1.812-8.281-2.203-8.89-.5-.797-7.703-.797-9.11-.797H9.407C13 9.672 20 16.75 28.5 24.953c6.094 5.781 13.203 12.578 13.203 22.469C41.703 59.219 32.297 66 21.797 66c-11 0-17.703-9.688-17.703-18.656 0-3.907 2.906-4.407 4.11-4.407 1 0 4 .61 4 4.094 0 3.078-2.61 3.969-4 3.969-.61 0-1.204-.094-1.61-.297C8.5 59.22 14.297 63.406 20.406 63.406c8.688 0 14.39-6.89 14.39-15.984 0-8.688-5.093-16.172-10.796-22.672L4.094 2.281V0h35.203z"/><path id="CMR17-51" d="M22.094 33.703c8.906 0 12.812-7.734 12.812-16.672C34.906 5 28.5.391 22.703.391c-5.297 0-13.906 2.64-16.61 10.437.5-.203 1-.203 1.5-.203 2.407 0 4.204 1.594 4.204 4.188 0 2.89-2.203 4.187-4.203 4.187-1.688 0-4.297-.797-4.297-4.531 0-9.235 9-16.469 19.61-16.469C34-2 42.5 6.719 42.5 16.953c0 9.719-8 16.735-17.5 17.844 7.594 1.578 14.906 8.266 14.906 17.219 0 7.672-7.906 13.28-16.906 13.28-9.094 0-17.094-5.468-17.094-13.28C5.906 48.594 8.5 48 9.796 48c2.11 0 3.907 1.297 3.907 3.89 0 2.579-1.797 3.876-3.906 3.876-.39 0-.89 0-1.297-.188C11.406 61.86 19.297 63 22.797 63s10.11-1.672 10.11-11.125c0-2.766-.407-7.688-3.813-12.031-3-3.844-6.39-3.844-9.688-4.157-.5 0-2.812-.234-3.203-.234-.703-.094-1.11-.187-1.11-.953 0-.703.11-.797 2.11-.797z"/><path id="CMR17-52" d="M33.594 64.406c0 2.094-.094 2.094-1.89 2.094L2 19.594V17h25.797V7.14c0-3.64-.203-4.64-7.203-4.64h-1.89V0h24v2.5h-1.907c-7 0-7.203 1-7.203 4.64V17h10.203v2.594H33.594zm-5.5-6.547V19.594H4z"/><path id="CMR17-53" d="M11.406 57.688c1-.407 5.094-1.688 9.297-1.688C30 56 35.093 61.11 38 64.063c0 .89 0 1.437-.594 1.437-.11 0-.312 0-1.11-.453-3.5-1.64-7.593-2.969-12.593-2.969-3 0-7.5.406-12.406 2.594-1.094.5-1.297.5-1.39.5-.5 0-.61-.11-.61-2.094V34.422c0-1.781 0-2.281 1-2.281.5 0 .703.203 1.203.89 3.203 4.485 7.594 6.375 12.594 6.375 3.5 0 11-2.187 11-19.265 0-3.188 0-8.97-3-13.563-2.5-4.094-6.39-6.187-10.688-6.187C14.796.39 8.094 5 6.296 12.719c.407-.11 1.204-.297 1.61-.297 1.297 0 3.797.703 3.797 3.797 0 2.687-1.906 3.781-3.797 3.781-2.312 0-3.812-1.406-3.812-4.203C4.094 7.094 11-2 21.594-2c10.312 0 20.11 8.875 20.11 21.75 0 11.969-7.798 21.25-17.5 21.25-5.11 0-9.407-1.89-12.798-5.469z"/><path id="CMR17-54" d="M10.594 34c0 23.656 11.203 29 17.703 29 2.11 0 7.203-.36 9.203-4-1.594 0-4.594 0-4.594-3.484 0-2.688 2.188-3.594 3.594-3.594.906 0 3.594.39 3.594 3.703 0 6.156-5 9.672-11.89 9.672C16.296 65.297 3.796 52.969 3.796 31c0-27.047 11.297-33 19.297-33C32.797-2 42 6.672 42 20.047c0 12.469-8.094 21.547-18.297 21.547-6.11 0-10.61-3.985-13.11-10.969zM23.094.39c-12.297 0-12.297 18.36-12.297 22.047C10.797 29.625 14.203 40 23.5 40c1.703 0 6.594 0 9.906-6.875 1.797-3.906 1.797-7.984 1.797-12.984 0-5.391 0-9.36-2.11-13.36-2.187-4.11-5.39-6.39-10-6.39"/><path id="md7965d1ba0" d="M0 0h4" style="stroke:currentColor;stroke-width:.5"/><path id="md9a1c1a7cd" d="M0 0h-4" style="stroke:currentColor;stroke-width:.5"/><path id="CMSY10-0" d="M65.906 23c1.688 0 3.5 0 3.5 2s-1.812 2-3.5 2h-54.11c-1.702 0-3.5 0-3.5-2s1.798-2 3.5-2z"/><path id="CMMI12-22" d="M14.406 2.188C16.906-.095 20.594-1 24-1c6.406 0 10.797 4.25 13.094 7.328 1-5.25 5.203-7.328 8.703-7.328 3 0 5.406 1.781 7.203 5.328 1.594 3.375 3 9.406 3 9.781 0 .5-.406.891-1 .891-.906 0-1-.5-1.406-1.969C52.094 7.203 50.204 1 46.094 1 43.204 1 43 3.578 43 5.594c0 2.281.906 5.875 1.594 8.875l2.812 10.765c.39 1.907 1.5 6.375 2 8.188.594 2.39 1.688 6.687 1.688 7.078 0 1.5-1.188 2.5-2.688 2.5-.906 0-3-.406-3.812-3.39l-7-27.735c-.5-2-.5-2.203-1.797-3.797C34.594 6.391 30.703 1 24.407 1 18.796 1 17 5.094 17 9.766c0 2.906.906 6.39 1.297 8.093l4.5 17.97c.5 1.89 1.297 5.077 1.297 5.687 0 1.593-1.297 2.484-2.594 2.484-.906 0-3.094-.297-3.906-3.5l-14.5-57.797C3-17.797 2.797-18.39 2.797-19c0-1.5 1.203-2.5 2.703-2.5 2.906 0 3.5 2.313 4.203 5.094z"/><path id="CMMI12-121" d="M26.297-10.938C23.594-14.671 19.703-18 14.797-18c-1.203 0-6 0-7.5 4.11.297-.094.797-.094 1-.094 3 0 5 2.593 5 4.89 0 2.297-1.89 3.094-3.39 3.094-1.61 0-5.11-1.156-5.11-5.86 0-4.874 4.297-8.234 10-8.234 10 0 20.11 9.157 22.906 20.188L47.5 38.828c.094.5.297 1.11.297 1.703 0 1.485-1.203 2.485-2.703 2.485-.89 0-3-.407-3.797-3.407l-7.39-29.328c-.5-1.797-.5-2-1.313-3.094C30.594 4.392 27.297 1 22.5 1c-5.594 0-6.094 5.484-6.094 8.188 0 5.687 2.688 13.359 5.39 20.546 1.11 2.891 1.704 4.297 1.704 6.282 0 4.203-3 7.984-7.906 7.984-9.188 0-12.89-14.469-12.89-15.266 0-.39.39-.89 1.093-.89.906 0 1 .39 1.406 1.797 2.39 8.375 6.203 12.375 10.094 12.375.906 0 2.61 0 2.61-3.297 0-2.594-1.11-5.485-2.61-9.282-4.89-13.078-4.89-16.359-4.89-18.765C10.406 1.203 17.202-1 22.202-1c2.89 0 6.5.906 10 4.594l.094-.094c-1.5-5.797-2.5-9.625-6-14.438"/><path id="CMR17-40" d="M30.594-24.39c0 .093 0 .296-.297.593-4.594 4.672-16.89 17.438-16.89 48.484 0 31.079 12.093 43.735 17 48.704 0 .109.187.312.187.609s-.297.5-.688.5c-1.11 0-9.61-7.375-14.5-18.344C10.406 45.11 9 34.36 9 24.813c0-7.188.703-19.329 6.703-32.172C20.5-17.734 28.703-25 29.906-25c.5 0 .688.203.688.61"/><path id="CMR17-41" d="M26.297 24.688c0 7.187-.703 19.328-6.703 32.171C14.797 67.234 6.594 74.5 5.406 74.5c-.312 0-.703-.11-.703-.61 0-.187.094-.296.203-.5 4.797-4.984 17-17.64 17-48.64 0-31.11-12.11-43.766-17-48.766-.11-.187-.203-.297-.203-.484 0-.5.39-.5.703-.5C6.5-25 15-17.625 19.906-6.656c5 11.047 6.39 21.797 6.39 31.343"/><path id="CMMI12-102" d="M44.594 40.094c2 0 2.812 0 2.812 1.906 0 1-.812 1-2.61 1h-8.093c1.89 10.578 3.297 17.89 4.094 21.172C41.407 66.64 43.5 69 46.094 69c2.11 0 4.203-.906 5.203-1.844-3.89-.406-5.094-3.375-5.094-5.14 0-2.063 1.5-3.282 3.39-3.282 2 0 5 1.735 5 5.625C54.594 68.641 50.407 71 46 71c-4.297 0-8.5-3.281-10.5-7.281-1.797-3.594-2.797-7.282-5.094-20.719h-6.703c-1.906 0-2.906 0-2.906-1.797 0-1.11.61-1.11 2.61-1.11h6.39C28 30.876 23.907 8.47 21.594-2.14 19.906-10.766 18.406-18 13.406-18c-.312 0-3.203 0-5 1.89 5.094.407 5.094 4.766 5.094 4.86 0 1.984-1.5 3.172-3.406 3.172-2 0-5-1.688-5-5.469C5.094-17.812 9.5-20 13.406-20c10.188 0 14.39 18.156 15.5 23.11 1.797 7.64 6.688 34.015 7.188 36.984z"/><path id="CMMI12-89" d="m58.797 56.953 2.297 2.281c4.406 4.485 8.11 5.594 11.61 5.875 1.093.094 2 .188 2 1.891 0 1-1 1-1.204 1H56.906c-.703 0-1.812 0-1.812-1.969 0-.937 1-1.031 1.312-1.031 3 0 3-1.5 3-2.094 0-1.093-.812-2.593-2.812-4.89l-23.797-27.25L21.5 61.109c-.594 1.391-.594 1.594-.594 1.797C20.906 65 25 65 26.203 65c1.203 0 2.297 0 2.297 1.86C28.5 68 27.594 68 27 68H5.094c-.688 0-1.797 0-1.797-1.969C3.297 65 4.203 65 5.703 65c4.89 0 5.797-.906 6.703-3.188l12.39-33.14c.11-.297.407-1.406.407-1.703 0-.297-4.906-19.907-5.203-20.907-.797-2.671-1.797-3.171-8.203-3.171-1.703 0-2.5 0-2.5-1.891 0-1 1.11-1 1.406-1H34c.703 0 1.906 0 1.906 1.797 0 1.094-.703 1.094-2.406 1.094-6.203 0-6.203.703-6.203 1.796 0 .704.797 3.875 1.297 5.875l3.61 14.344c.593 2.078.593 2.266 1.5 3.266z"/><path id="CMSY10-24" d="M72.219 33.406c0 2.188-.594 3.188-1.39 3.188-.5 0-1.313-.688-1.407-2.594-.406-9.594-7-15.094-14-15.094-6.313 0-11.11 4.297-16.016 8.594-5.093 4.594-10.297 9.203-17.093 9.203-10.907 0-16.813-11-16.813-20.11 0-3.187 1.297-3.187 1.406-3.187 1.094 0 1.39 2 1.39 2.297.407 11 7.907 15.39 14.017 15.39 6.296 0 11.093-4.296 16-8.593 5.093-4.594 10.296-9.203 17.109-9.203 10.906 0 16.797 11 16.797 20.11"/><path id="CMMI12-59" d="M19.5-.484c0 5.843-1.906 10.156-6 10.156-3.203 0-4.797-2.594-4.797-4.781 0-2.204 1.5-4.891 4.89-4.891 1.313 0 2.407.406 3.313 1.297.188.203.297.203.39.203.204 0 .204-1.422.204-1.922 0-3.328-.594-9.875-6.406-16.453C10-18.078 10-18.281 10-18.485c0-.515.5-1.015 1-1.015.797 0 8.5 7.453 8.5 19.016"/><path id="CMMI12-27" d="M50.797 37.625c1.297 0 4.61 0 4.61 3.188C55.406 43 53.5 43 51.702 43h-22.11c-15 0-25.796-16.656-25.796-28.438C3.797 6.095 9.297-1 18.297-1 30.094-1 43 11.672 43 26.64c0 3.891-.906 7.672-3.297 10.985zM18.407 1c-5.11 0-8.813 3.89-8.813 10.781 0 5.985 3.61 25.844 18.312 25.844 4.297 0 9.094-2.094 9.094-9.797 0-3.484-1.594-11.875-5.094-17.64-3.61-5.891-9-9.188-13.5-9.188"/><path id="CMSY10-78" d="M30.594 57.906c1.812-5.203 4-12.703 8.5-25 6.312-17 9.11-23.203 15.203-32.703C55.703-1.907 55.797-2 56.703-2c1.39 0 3.5 1.203 4.594 2 1.406 1.297 1.5 1.406 2.61 6.313 6 26.328 13.593 53.78 15.593 58.39.094.203 2.094 4 14.406 4 2 0 3.89 5.422 3.89 7.672 0 1.625-.593 1.625-2 1.625-10 0-14.5-4.188-15.702-5.484-2.797-3.579-5.188-10.86-9.797-27.485-3.5-12.75-6.703-25.703-9.797-38.547-5.5 8.266-8.594 16.125-13.406 28.97-5.297 14.14-8.5 24.5-11.188 33.468-.61 1.984-.703 2.078-1.61 2.078-.202 0-2.202 0-5.093-2.39-1-.891-1.11-1.797-1.203-2.876-2.797-26.5-12.203-52.671-14.906-57.453-.797-1.5-2-3.281-4-3.281-1 0-4.89.5-7.5 2.875-.5.406-.688.406-.797.406-1.594 0-3.703-5-3.703-7.39 0-3.094 6.11-5.094 8.906-5.094 6.406 0 11.5 13.797 13.094 18.406 6.5 18.094 9.61 33 11.5 43.703"/><path id="CMMI12-120" d="M47.406 40.719c-3.203-.61-4.406-3-4.406-4.89 0-2.407 1.906-3.204 3.297-3.204 3 0 5.11 2.594 5.11 5.297 0 4.187-4.813 6.078-9 6.078-6.11 0-9.5-5.984-10.407-7.875C29.703 44 23.5 44 21.703 44 11.5 44 6.093 30.937 6.093 28.734c0-.39.407-.89 1.11-.89.797 0 1 .593 1.203 1 3.39 11.078 10.094 13.172 13 13.172 4.5 0 5.39-4.203 5.39-6.594 0-2.188-.593-4.484-1.796-9.281l-3.406-13.672C20.094 6.484 17.204 1 11.906 1c-.5 0-3 0-5.11 1.297 3.61.703 4.407 3.687 4.407 4.89 0 2-1.5 3.188-3.406 3.188-2.39 0-5-2.094-5-5.281C2.797.89 7.5-1 11.797-1 16.594-1 20 2.797 22.094 6.89 23.704 1 28.704-1 32.406-1 42.594-1 48 12.078 48 14.266c0 .5-.406.906-1 .906-.906 0-1-.5-1.297-1.297C43 5.094 37.203 1 32.703 1c-3.5 0-5.406 2.594-5.406 6.688 0 2.187.406 3.78 2 10.375l3.5 13.562c1.5 6 4.906 10.39 9.5 10.39.203 0 3 0 5.11-1.296"/><path id="CMR17-61" d="M64.297 31.516c1.5 0 3 0 3 1.687C67.297 35 65.594 35 63.907 35H8c-1.703 0-3.406 0-3.406-1.797 0-1.687 1.5-1.687 3-1.687zM63.907 14c1.687 0 3.39 0 3.39 1.797 0 1.687-1.5 1.687-3 1.687H7.594c-1.5 0-3 0-3-1.687C4.594 14 6.297 14 8 14z"/><path id="CMMI12-101" d="M17.906 23.11c2.688 0 9.5 0 14.297 1.812 7.594 2.937 8.297 8.797 8.297 10.61C40.5 39.968 36.703 44 30.094 44 19.594 44 4.5 34.531 4.5 16.766 4.5 6.28 10.5-1 19.594-1c13.61 0 22.203 10.516 22.203 11.813 0 .593-.594 1.093-1 1.093-.297 0-.39-.094-1.297-.984C33.094 2.484 23.594 1 19.797 1c-5.703 0-8.703 4.469-8.703 11.844 0 1.39 0 3.89 1.5 10.265zM13.094 25c4.312 15.5 13.812 17.016 17 17.016 4.406 0 7.406-2.61 7.406-6.438C37.5 25 21.5 25 17.297 25z"/><path id="m94d3f7ccbf" d="M212.37-231.424v-.172l.026-.01.026-.011.027-.011.027-.011.027-.012.028-.013.028-.014.028-.014.029-.015.029-.015.03-.017.029-.017.031-.018.03-.019.031-.02.032-.02.032-.022.032-.023.032-.024.033-.025.034-.027.034-.027.034-.029.035-.031.035-.031.036-.033.036-.035.036-.036.037-.038.038-.04.038-.041.038-.043.039-.045.039-.047.04-.049.04-.051.041-.054.042-.055.042-.058.042-.061.043-.063.044-.065.044-.069.044-.071.046-.074.046-.077.046-.08.047-.083.047-.087.049-.09.048-.093.05-.097.05-.101.05-.104.052-.109.052-.113.052-.116.053-.121.054-.126.055-.13.055-.135.056-.139.057-.145.057-.15.058-.154.059-.161.06-.165.06-.172.061-.177.062-.183.063-.189.063-.195.065-.201.065-.208.066-.215.067-.222.067-.228.069-.235.069-.243.07-.25.071-.258.072-.265.073-.273.074-.281.075-.289.075-.297.077-.306.078-.315.078-.323.08-.332.08-.34.082-.35.083-.36.083-.368.085-.378.086-.388.087-.398.088-.407.089-.417.09-.428.091-.438.093-.448.094-.458.095-.469.096-.48.097-.49.099-.502.099-.512.101-.523.103-.534.103-.545.105-.556.107-.567.107-.579.109-.59.11-.601.112-.612.113-.624.115-.635.116-.646.117-.657.119-.669.121-.68.122-.691.123-.702.125-.713.127-.724.128-.735.13-.745.132-.757.133-.766.135-.778.137-.787.138-.798.14-.807.142-.818.144-.827.145-.836.147-.846.149-.855.151-.863.153-.872.155-.88.157-.888.159-.896.161-.904.163-.91.165-.918.167-.924.169-.93.171-.936.173-.941.176-.947.178-.951.18-.956.182-.96.185-.963.187-.967.189-.969.192-.971.194-.974.197-.974.199-.976.202-.976.204-.976.207-.976.209-.975.212-.973.215-.971.217-.969.221-.965.223-.962.225-.958.229-.954.232-.948.234-.943.237-.936.241-.93.243-.922.247-.914.25-.906.252-.897.256-.888.26-.877.262-.867.266-.856.269-.844.273-.832.276-.819.279-.806.283-.792.287-.778.29-.763.294-.748.298-.732.301-.715.306-.699.309-.681.313-.663v92.624H212.37z" style="stroke:#4682b4;stroke-opacity:.2"/><path id="CMR17-55" d="M45.094 61.578v2.188h-23.5c-11.688 0-11.89 1.312-12.297 3.234H7.5L4.594 48.344h1.812c.297 1.89 1 6.968 2.188 8.86.61.796 8 .796 9.703.796h22L29.203 41.578c-7.406-11.047-12.5-25.969-12.5-39 0-1.187 0-4.578 3.594-4.578 3.61 0 3.61 3.39 3.61 4.672v4.594c0 16.297 2.796 27.047 7.39 33.922z"/><path id="CMR17-43" d="M37.703 23h26.5c1.39 0 3.094 0 3.094 1.688 0 1.796-1.594 1.796-3.094 1.796h-26.5v26.422c0 1.39 0 3.094-1.703 3.094-1.797 0-1.797-1.594-1.797-3.094V26.484h-26.5c-1.406 0-3.11 0-3.11-1.687C4.594 23 6.204 23 7.704 23h26.5V-3.406c0-1.39 0-3.094 1.703-3.094 1.797 0 1.797 1.594 1.797 3.094z"/><path id="CMMI12-88" d="m47.5 40.563-9.406 21.843c1.312 2.39 4.312 2.782 5.5 2.89.61 0 1.703 0 1.703 1.766 0 1.126-.89 1.126-1.5 1.126H22c-.797 0-1.797 0-1.797-1.891 0-1 .89-1 2.203-1 5.797 0 6.188-1 7.188-3.39L41.5 34.14 19.797 10.828C16.203 6.906 11.907 3.094 4.5 3.094 3.297 3 2.5 3 2.5 1.063 2.5.75 2.594 0 3.703 0H22.5c.703 0 1.906 0 1.906 1.797 0 1-.703 1.094-1.312 1.094-2 .203-3.297 1.296-3.297 2.89 0 1.703 1.203 2.922 4.11 5.907l8.89 9.687c2.203 2.297 7.5 8.094 9.703 10.281L53 7.078c.094-.187.5-1.187.5-1.297 0-.89-2.203-2.687-5.406-2.687-.594 0-1.688 0-1.688-1.985 0-1.109 1-1.109 1.5-1.109h21.797c.703 0 1.797 0 1.797 2.031 0 1.063-1 1.063-1.906 1.063-6 0-6.188.5-7.89 4.172L48.5 38.14l12.703 13.672c1 1.015 3.297 3.53 4.203 4.53C69.703 60.876 73.703 65 81.796 65c1 .297 2 .297 2 2.063 0 1.124-.89 1.124-1.296 1.124H63.797c-.703 0-1.89 0-1.89-1.796 0-1 .687-1.094 1.296-1.094 1.594-.188 3.297-.984 3.297-2.89l-.094-.188c-.11-.703-.312-1.703-1.406-2.89z"/><path id="CMR17-108" d="m15.297 68.688-11.89-1.094V65c5.89 0 6.796-.594 6.796-5.36V6.657c0-3.781-.406-4.265-6.797-4.265V-.203C5.796 0 10.203 0 12.703 0c2.594 0 7 0 9.39-.203V2.39c-6.39 0-6.796.39-6.796 4.265z"/><path id="CMR17-110" d="M41.5 30.203c0 5.094-1 13.39-12.797 13.39-7.906 0-12-6.093-13.5-10.093h-.11v10.094L3.298 42.5v-2.594c5.906 0 6.797-.61 6.797-5.406V6.687c0-3.812-.39-4.296-6.797-4.296V-.203C5.703 0 10.094 0 12.703 0c2.594 0 7.094 0 9.5-.203V2.39c-6.406 0-6.797.39-6.797 4.296v19.22C15.406 35.108 21 42 28 42c7.406 0 8.203-6.594 8.203-11.406V6.687c0-3.812-.406-4.296-6.797-4.296V-.203C31.796 0 36.203 0 38.796 0c2.61 0 7.11 0 9.5-.203V2.39c-6.39 0-6.796.39-6.796 4.296z"/><path id="CMR17-91" d="M23.5-25v3.484h-9.406V71H23.5v3.484H10.594V-25z"/><path id="CMR17-93" d="M14.297 74.484H1.407V71h9.39v-92.516h-9.39V-25h12.89z"/><path id="CMR17-69" d="M60.703 25.234h-1.797c-2.203-14.672-3.5-22.64-21.11-22.64h-13.89c-4 0-4.203.484-4.203 3.875V34h9.39c9.407 0 10.313-3.375 10.313-11.656h1.797V48.14h-1.797c0-8.188-.906-11.547-10.312-11.547h-9.39V61.14c0 3.359.202 3.859 4.202 3.859h13.688c15.5 0 17.312-6.11 18.703-19.234h1.797l-2.39 21.812H5.093V65c6.906 0 8 0 8-4.469V7.047c0-4.453-1.094-4.453-8-4.453V0h52z"/><clipPath id="p4f19af1170"><path id="rect234" d="M26.351 145.8h178.92v204.12H26.351z"/></clipPath><clipPath id="p49928919b5"><path id="rect235" d="M210.311 7.2h279.72v133.56h-279.72z"/></clipPath><clipPath id="p3d569bb202"><path id="rect236" d="M210.311 145.8h279.72v204.12h-279.72z"/></clipPath><style id="style1" type="text/css">*{stroke-linecap:butt;stroke-linejoin:round}</style></defs><path id="path2" d="M16.464 15.292h1.329v2.115h-1.33zm0 2.692h1.329v2.115h-1.33zm0 2.693h1.329v2.115h-1.33zm2.392-5.385h1.329v2.115h-1.33zm0 2.692h1.329v2.115h-1.33zm0 2.693h1.329v2.115h-1.33zm2.39-5.385h1.33v2.115h-1.33zm0 2.692h1.33v2.115h-1.33zm0 2.693h1.33v2.115h-1.33z" style="fill:currentColor;fill-opacity:.3"/><path id="path3" d="M23.847 14.167v9.75h-1.271v-.508h.85v-8.734h-.85v-.508h.85zm-8.653 0v9.75h1.27v-.508h-.85v-8.734h.85v-.508h-.85z" style="fill:currentColor"/><path id="path4" d="M2.19 16.725h1.696v.947H2.19z" style="fill:currentColor;fill-opacity:.3;stroke:currentColor;stroke-width:.105832;stroke-dasharray:none;stroke-opacity:1"/><path id="path5" d="M4.285 16.725h1.696v.947H4.285zm2.095 0h1.696v.947H6.38zm2.095 0h1.696v.947H8.475Zm2.095 0h1.696v.947H10.57zm-8.38 1.358h1.696v.947H2.19z" style="fill:currentColor;stroke:currentColor;stroke-width:.105832;stroke-dasharray:none;stroke-opacity:1"/><path id="path6" d="M4.285 18.083h1.696v.947H4.285z" style="fill:currentColor;fill-opacity:.3;stroke:currentColor;stroke-width:.105832;stroke-dasharray:none;stroke-opacity:1"/><path id="path7" d="M6.38 18.083h1.696v.947H6.38zm2.095 0h1.696v.947H8.475Zm2.095 0h1.696v.947H10.57zM2.19 19.44h1.696v.947H2.19zm2.095 0h1.696v.947H4.285z" style="fill:currentColor;stroke:currentColor;stroke-width:.105832;stroke-dasharray:none;stroke-opacity:1"/><path id="path8" d="M6.38 19.44h1.696v.948H6.38z" style="fill:currentColor;fill-opacity:.3;stroke:currentColor;stroke-width:.105832;stroke-dasharray:none;stroke-opacity:1"/><path id="path9" d="M8.475 19.44h1.696v.948H8.475Zm2.095 0h1.696v.948H10.57zm-8.38 1.358h1.696v.947H2.19zm2.095 0h1.696v.947H4.285zm2.095 0h1.696v.947H6.38z" style="fill:currentColor;stroke:currentColor;stroke-width:.105832;stroke-dasharray:none;stroke-opacity:1"/><path id="path10" d="M8.475 20.798h1.696v.947H8.475Z" style="fill:currentColor;fill-opacity:.3;stroke:currentColor;stroke-width:.105832;stroke-dasharray:none;stroke-opacity:1"/><path id="path11" d="M10.57 20.798h1.696v.947H10.57zm-8.38 1.358h1.696v.947H2.19zm2.095 0h1.696v.947H4.285zm2.095 0h1.696v.947H6.38zm2.095 0h1.696v.947H8.475Z" style="fill:currentColor;stroke:currentColor;stroke-width:.105832;stroke-dasharray:none;stroke-opacity:1"/><path id="path12" d="M10.57 22.157h1.696v.946H10.57z" style="fill:currentColor;fill-opacity:.3;stroke:currentColor;stroke-width:.105832;stroke-dasharray:none;stroke-opacity:1"/><path id="rect48" d="M4.482 9.469h.986v2.63h-.986z" style="fill:currentColor;fill-opacity:.3;stroke:currentColor;stroke-width:.191261;stroke-linecap:square;stroke-linejoin:miter;stroke-dasharray:none;stroke-opacity:1"/><path id="rect49" d="M5.468 3.536h.852v8.563h-.852z" style="fill:currentColor;fill-opacity:.3;stroke:currentColor;stroke-width:.191261;stroke-linecap:square;stroke-linejoin:miter;stroke-dasharray:none;stroke-opacity:1"/><path id="rect50" d="M6.313 2.299h.84v9.808h-.84z" style="fill:currentColor;fill-opacity:.3;stroke:currentColor;stroke-width:.191261;stroke-linecap:square;stroke-linejoin:miter;stroke-dasharray:none;stroke-opacity:1"/><path id="rect51" d="M7.157 4.878h.866v7.223h-.866z" style="fill:currentColor;fill-opacity:.3;stroke:currentColor;stroke-width:.191261;stroke-linecap:square;stroke-linejoin:miter;stroke-dasharray:none;stroke-opacity:1"/><path id="rect52" d="M8.023 4.041h.857v8.06h-.857z" style="fill:currentColor;fill-opacity:.3;stroke:currentColor;stroke-width:.191261;stroke-linecap:square;stroke-linejoin:miter;stroke-dasharray:none;stroke-opacity:1"/><path id="rect53" d="M8.88 6.503h.885v5.599H8.88z" style="fill:currentColor;fill-opacity:.3;stroke:currentColor;stroke-width:.191261;stroke-linecap:square;stroke-linejoin:miter;stroke-dasharray:none;stroke-opacity:1"/><path id="rect54" d="M9.766 8.456h.914v3.645h-.914z" style="fill:currentColor;fill-opacity:.3;stroke:currentColor;stroke-width:.191261;stroke-linecap:square;stroke-linejoin:miter;stroke-dasharray:none;stroke-opacity:1"/><path id="rect55" d="M10.68 8.123h.908v3.979h-.908z" style="fill:currentColor;fill-opacity:.3;stroke:currentColor;stroke-width:.191261;stroke-linecap:square;stroke-linejoin:miter;stroke-dasharray:none;stroke-opacity:1"/><path id="rect56" d="M11.588 9.548h.934v2.554h-.934z" style="fill:currentColor;fill-opacity:.3;stroke:currentColor;stroke-width:.191261;stroke-linecap:square;stroke-linejoin:miter;stroke-dasharray:none;stroke-opacity:1"/><path id="rect57" d="M12.522 10.328h.951v1.773h-.951z" style="fill:currentColor;fill-opacity:.3;stroke:currentColor;stroke-width:.191261;stroke-linecap:square;stroke-linejoin:miter;stroke-dasharray:none;stroke-opacity:1"/><path id="rect58" d="M13.473 10.674h.96v1.427h-.96z" style="fill:currentColor;fill-opacity:.3;stroke:currentColor;stroke-width:.191261;stroke-linecap:square;stroke-linejoin:miter;stroke-dasharray:none;stroke-opacity:1"/><path id="rect59" d="M14.433 11.043h.971v1.059h-.971z" style="fill:currentColor;fill-opacity:.3;stroke:currentColor;stroke-width:.191261;stroke-linecap:square;stroke-linejoin:miter;stroke-dasharray:none;stroke-opacity:1"/><path id="rect60" d="M16.396 11.46h.987v.641h-.987z" style="fill:currentColor;fill-opacity:.3;stroke:currentColor;stroke-width:.191261;stroke-linecap:square;stroke-linejoin:miter;stroke-dasharray:none;stroke-opacity:1"/><path id="rect61" d="M15.405 11.566h.992v.536h-.992z" style="fill:currentColor;fill-opacity:.3;stroke:currentColor;stroke-width:.191261;stroke-linecap:square;stroke-linejoin:miter;stroke-dasharray:none;stroke-opacity:1"/><path id="rect62" d="M17.383 11.695h.998v.407h-.998z" style="fill:currentColor;fill-opacity:.3;stroke:currentColor;stroke-width:.191261;stroke-linecap:square;stroke-linejoin:miter;stroke-dasharray:none;stroke-opacity:1"/><path id="rect63" d="M18.381 11.796h1.022v.305h-1.022z" style="fill:currentColor;fill-opacity:.3;stroke:currentColor;stroke-width:.191261;stroke-linecap:square;stroke-linejoin:miter;stroke-dasharray:none;stroke-opacity:1"/><path id="rect64" d="M19.402 11.721h1.002v.38h-1.002z" style="fill:currentColor;fill-opacity:.3;stroke:currentColor;stroke-width:.191261;stroke-linecap:square;stroke-linejoin:miter;stroke-dasharray:none;stroke-opacity:1"/><path id="rect65" d="M20.404 11.863h1.038v.239h-1.038z" style="fill:currentColor;fill-opacity:.3;stroke:currentColor;stroke-width:.191261;stroke-linecap:square;stroke-linejoin:miter;stroke-dasharray:none;stroke-opacity:1"/><path id="path66" d="m3.717 12.1 18.135.002" style="fill:currentColor;fill-opacity:.3;stroke:currentColor;stroke-width:.191261;stroke-linecap:square;stroke-linejoin:miter;stroke-dasharray:none;stroke-opacity:1"/><path id="path67" d="M4.482 1.3v11.564" style="fill:currentColor;fill-opacity:.3;stroke:currentColor;stroke-width:.191261;stroke-linecap:square;stroke-linejoin:miter;stroke-dasharray:none;stroke-opacity:1"/><g id="figure_1" style="stroke:currentColor;stroke-width:.786298;stroke-dasharray:none;stroke-opacity:1" transform="matrix(.2332 0 0 .25371 -48.199 39.995)"><g id="axes_3" style="stroke:currentColor;stroke-width:.402992;stroke-dasharray:none;stroke-opacity:1" transform="matrix(1.586 0 0 2.40037 -232.594 201.86)"><g id="line2d_57" style="stroke:currentColor;stroke-width:2.4171;stroke-dasharray:none;stroke-opacity:1" transform="matrix(.16673 0 0 .16673 253.69 -153.21)"><path id="path135" d="m212.37 140.588.561-.311.615-.623.642-1.023.631-1.405.733-2.128.853-3.092 1.208-5.338 1.448-7.461 2.728-15.486 3.13-17.38 1.873-9.331 1.56-6.973 1.708-6.738 1.869-6.302 1.344-3.86 1.427-3.518 1.516-3.122 1.61-2.677 1.711-2.188.894-.899.922-.764.95-.625.98-.485 1.009-.342 1.04-.197 1.072-.052 1.105.094 1.138.238 1.174.383 1.209.526 2.531 1.468 2.689 2.005 2.855 2.507 3.033 2.968 4.906 5.214 17.686 19.34 4.626 4.67 4.913 4.681 5.218 4.64 5.543 4.552 5.888 4.422 6.253 4.255 6.642 4.058 7.055 3.839 7.493 3.599 7.959 3.349 8.454 3.092 8.98 2.831 9.537 2.575 10.13 2.324 10.76 2.083 11.429 1.853 12.139 1.637 12.894 1.437 13.695 1.252 14.546 1.084 15.451.932 16.411.796v0" clip-path="url(#p49928919b5)" style="fill:none;stroke:currentColor;stroke-width:2.4171;stroke-linecap:square;stroke-dasharray:none;stroke-opacity:1"/></g></g></g></svg>
