<svg width="100" height="100" fill="currentColor" viewBox="0 0 26.458 26.458" xmlns="http://www.w3.org/2000/svg"><defs><marker style="overflow:visible" id="marker1" refX="0" refY="0" orient="auto-start-reverse" markerWidth="0.5" markerHeight="0.5" viewBox="0 0 1 1" preserveAspectRatio="xMidYMid"><path transform="scale(0.5)" style="fill:context-stroke;fill-rule:evenodd;stroke:context-stroke;stroke-width:1pt" d="M 5.77,0 -2.88,5 V -5 Z"/></marker><marker style="overflow:visible" id="Triangle" refX="0" refY="0" orient="auto-start-reverse" markerWidth="0.5" markerHeight="0.5" viewBox="0 0 1 1" preserveAspectRatio="xMidYMid"><path transform="scale(0.5)" style="fill:context-stroke;fill-rule:evenodd;stroke:context-stroke;stroke-width:1pt" d="M 5.77,0 -2.88,5 V -5 Z"/></marker></defs><path style="fill:none;stroke:currentColor;stroke-width:0.343954;stroke-linecap:square;stroke-miterlimit:4;marker-end:url(#marker1)" d="M 9.1978838,2.2676544 6.233795,6.2246365"/><path style="fill:none;stroke:currentColor;stroke-width:0.343954;stroke-linecap:square;stroke-miterlimit:4;marker-end:url(#Triangle)" d="M 9.1978838,2.2676544 12.209448,6.2398688"/><path style="fill:none;stroke:currentColor;stroke-width:0.343954;stroke-linecap:square;stroke-miterlimit:4;marker-end:url(#marker1)" d="M 5.2010001,7.6550003 3.3070994,11.439377"/><path style="fill:none;stroke:currentColor;stroke-width:0.343954;stroke-linecap:square;stroke-miterlimit:4;marker-end:url(#marker1)" d="M 5.2010001,7.6550003 7.0750232,11.464154"/><circle cx="9.223" cy="2.292" r="1.162"/><circle cx="5.201" cy="7.655" r="1.162"/><circle cx="2.519" cy="13.018" r="1.162"/><circle cx="7.8831258" cy="13.018" r="1.162"/><path d="M24.482 16.872a.589.589 0 0 1-.589.588.589.589 0 0 1-.588-.588.589.589 0 0 1 .588-.59.589.589 0 0 1 .59.59zm-3.076-5.758a.589.589 0 0 1-.589.589.589.589 0 0 1-.589-.59.589.589 0 0 1 .59-.588.589.589 0 0 1 .588.589zm-2.85 2.474a.589.589 0 0 1-.59.589.589.589 0 0 1-.588-.59.589.589 0 0 1 .589-.588.589.589 0 0 1 .589.589zm4.568-1.092a.589.589 0 0 1-.588.589.589.589 0 0 1-.59-.59.589.589 0 0 1 .59-.588.589.589 0 0 1 .588.589zm-.965 5.395a.589.589 0 0 1-.589.588.589.589 0 0 1-.589-.588.589.589 0 0 1 .59-.59.589.589 0 0 1 .588.59zm-1.56 1.01a.589.589 0 0 1-.589.589.589.589 0 0 1-.589-.589.589.589 0 0 1 .59-.589.589.589 0 0 1 .588.59zm2.726-4.77a.589.589 0 0 1-.59.589.589.589 0 0 1-.588-.589.589.589 0 0 1 .589-.589.589.589 0 0 1 .589.59zm-6.19 6.985a.589.589 0 0 1-.589.589.589.589 0 0 1-.589-.59.589.589 0 0 1 .59-.588.589.589 0 0 1 .588.589zm2.138-2.948a.589.589 0 0 1-.589.589.589.589 0 0 1-.589-.589.589.589 0 0 1 .59-.589.589.589 0 0 1 .588.589zm2.432-2.663a.589.589 0 0 1-.59.59.589.589 0 0 1-.588-.59.589.589 0 0 1 .589-.588.589.589 0 0 1 .589.588zm-2.217-.452a.589.589 0 0 1-.59.589.589.589 0 0 1-.588-.589.589.589 0 0 1 .589-.589.589.589 0 0 1 .589.589zm-.935 4.359a.589.589 0 0 1-.59.589.589.589 0 0 1-.588-.59.589.589 0 0 1 .589-.588.589.589 0 0 1 .589.589zm-2.775-3.273a.589.589 0 0 1-.59.589.589.589 0 0 1-.588-.59.589.589 0 0 1 .589-.588.589.589 0 0 1 .589.589zm1.776 1.418a.589.589 0 0 1-.59.589.589.589 0 0 1-.588-.59.589.589 0 0 1 .589-.588.589.589 0 0 1 .589.589zm-2.546 2.202a.589.589 0 0 1-.588.588.589.589 0 0 1-.59-.588.589.589 0 0 1 .59-.59.589.589 0 0 1 .588.59zM16 18.358a.589.589 0 0 1-.59.589.589.589 0 0 1-.588-.59.589.589 0 0 1 .589-.588.589.589 0 0 1 .589.589zm-3.206 4.139a.589.589 0 0 1-.589.589.589.589 0 0 1-.588-.59.589.589 0 0 1 .588-.588.589.589 0 0 1 .59.589zm2.017-.42a.589.589 0 0 1-.59.59.589.589 0 0 1-.588-.59.589.589 0 0 1 .589-.588.589.589 0 0 1 .589.589z" style="fill:currentColor;fill-opacity:.3;stroke:currentColor;stroke-width:.14536;stroke-linecap:square"/><circle cx="-13.262037" cy="7.6550002" r="1.162" transform="scale(-1,1)"/></svg>
