<svg xmlns="http://www.w3.org/2000/svg" width="100" height="100" viewBox="0 0 26.458 26.458"><defs><marker id="a" markerHeight=".5" markerWidth=".5" orient="auto-start-reverse" preserveAspectRatio="xMidYMid" refX="0" refY="0" style="overflow:visible" viewBox="0 0 1 1"><path d="m5.77 0-8.65 5V-5Z" style="fill:context-stroke;fill-rule:evenodd;stroke:context-stroke;stroke-width:1pt" transform="scale(.5)"/></marker></defs><path d="M26.46 18.689c-2.274-.028-1.986-.079-2.59-.131-3.358-.287-4.865-2.734-6.184-5.025-1.673-2.906-2.914-5.776-4.435-5.776-1.522 0-2.8 2.87-4.512 5.776-1.35 2.29-2.892 4.738-6.251 5.025-.567.048-.562.097-2.488.125" style="display:inline;fill:none;stroke:currentColor;stroke-width:.4;stroke-dasharray:none;fill-opacity:1"/><path d="M13.251 7.63c-1.522 0-2.8 2.956-4.512 5.95-1.35 2.36-2.892 4.88-6.252 5.176-.566.05-.561.1-2.487.13l15.742.003v-8.853c-.828-1.408-1.613-2.407-2.49-2.407Z" style="display:inline;fill:currentColor;fill-opacity:.3;stroke:none;stroke-width:.489233;stroke-dasharray:none"/><g style="stroke-width:5.09529;stroke-dasharray:none"><path d="M7.625.299h1.687c1.418 0 2.801-1.031 2.801-2.145 0-.773-.656-1.511-1.969-1.511H6.922c-.188 0-.293 0-.293.199 0 .117.082.117.281.117.129 0 .316.012.434.012.152.023.21.058.21.164 0 .035 0 .07-.035.187L6.183 2.678c-.093.386-.117.468-.902.468-.176 0-.281 0-.281.188 0 .117.117.117.152.117.281 0 .985-.035 1.266-.035.21 0 .422.012.633.012.222 0 .445.023.644.023.07 0 .2 0 .2-.2 0-.105-.083-.105-.27-.105-.375 0-.656 0-.656-.187 0-.059.023-.106.035-.164zm.715-2.965c.082-.352.105-.375.539-.375h.949c.832 0 1.36.27 1.36.95 0 .398-.2 1.253-.587 1.605C10.098-.041 9.5.04 9.066.04H7.66Zm7.336 8.508c0-.035 0-.047-.164-.223-1.243-1.254-1.57-3.129-1.57-4.664 0-1.723.386-3.457 1.605-4.71.129-.118.129-.13.129-.165 0-.07-.035-.105-.094-.105-.106 0-.996.68-1.582 1.945-.516 1.101-.633 2.203-.633 3.035 0 .785.117 1.992.656 3.117.598 1.219 1.453 1.875 1.559 1.875.059 0 .094-.035.094-.105zm5.408-6.481-.832-1.992a.42.42 0 0 1-.047-.129c0-.058.164-.246.586-.281.094-.012.2-.024.2-.188 0-.128-.118-.128-.153-.128-.41 0-.832.035-1.254.035-.246 0-.867-.035-1.113-.035-.059 0-.188 0-.188.199 0 .117.106.117.234.117.598 0 .657.094.75.316L20.44.053l-2.097 2.261-.13.106c-.491.527-.96.691-1.464.726-.129 0-.223 0-.223.2 0 0 0 .105.13.105.304 0 .632-.035.937-.035.363 0 .761.035 1.113.035.059 0 .176 0 .176-.2 0-.105-.094-.105-.117-.105-.082-.011-.399-.035-.399-.316 0-.152.152-.316.27-.445l1.02-1.078.89-.973 1.008 2.379c.047.105.047.117.047.14 0 .082-.188.247-.575.293-.105 0-.199.012-.199.188 0 .117.117.117.152.117.282 0 .973-.035 1.254-.035.246 0 .856.035 1.102.035.07 0 .2 0 .2-.187 0-.118-.106-.118-.188-.118-.668-.011-.68-.046-.856-.445-.387-.926-1.055-2.473-1.289-3.07.68-.703 1.734-1.887 2.05-2.168.282-.235.669-.48 1.266-.504.13-.012.211-.012.211-.2 0-.011 0-.116-.128-.116-.293 0-.622.035-.938.035-.363 0-.738-.035-1.102-.035-.058 0-.187 0-.187.199 0 .07.047.105.117.117.094.012.399.023.399.305 0 .14-.106.27-.188.363zm13.702-1.828c.106-.047.188-.094.188-.223a.198.198 0 0 0-.2-.199c-.047 0-.14.047-.175.059L29.09-.23c-.176.082-.2.153-.2.235 0 .094.06.152.2.222l5.508 2.59c.128.07.14.07.175.07.106 0 .2-.093.2-.199 0-.093-.036-.152-.211-.234L29.559.005Zm-.164 7.277c.176 0 .352 0 .352-.199s-.211-.199-.364-.199h-5.367c-.152 0-.351 0-.351.2 0 .198.175.198.34.198zm7.28-4.37c.059-.258.293-1.172.985-1.172.046 0 .293 0 .504.128a.58.58 0 0 0-.48.54c0 .164.105.351.374.351.223 0 .54-.187.54-.586 0-.516-.587-.656-.927-.656-.574 0-.925.527-1.043.762-.257-.657-.785-.762-1.078-.762-1.043 0-1.605 1.289-1.605 1.535 0 .105.105.105.117.105.082 0 .117-.023.129-.117.34-1.054.996-1.3 1.336-1.3.187 0 .539.093.539.667 0 .305-.164.973-.54 2.368-.152.62-.503 1.043-.948 1.043-.059 0-.282 0-.493-.13.246-.058.47-.269.47-.538 0-.27-.224-.352-.376-.352-.293 0-.539.258-.539.574 0 .457.492.657.938.657.656 0 1.007-.692 1.043-.75.117.363.48.75 1.078.75 1.02 0 1.593-1.278 1.593-1.536 0-.093-.093-.093-.128-.093-.083 0-.106.035-.13.105-.328 1.067-.995 1.313-1.324 1.313-.386 0-.539-.328-.539-.657 0-.222.059-.445.164-.879zm5.25.515c0-.773-.117-1.98-.656-3.105-.598-1.22-1.465-1.875-1.559-1.875a.105.105 0 0 0-.105.105c0 .035 0 .047.2.234.972.985 1.534 2.567 1.534 4.641 0 1.711-.363 3.457-1.593 4.723-.141.117-.141.129-.141.164 0 .058.047.105.105.105.094 0 .996-.68 1.582-1.945.504-1.102.633-2.203.633-3.047zm0 0" aria-label="P(X≤x)" style="fill:currentColor;fill-opacity:1;fill-rule:nonzero;stroke:none;stroke-width:5.09529;stroke-dasharray:none" transform="translate(.538 6.362) scale(.20095)"/></g><path d="M15.86 20.242c.012-.054.061-.246.206-.246.01 0 .062 0 .106.027a.122.122 0 0 0-.1.113c0 .035.021.074.078.074.047 0 .113-.04.113-.123 0-.108-.123-.138-.194-.138-.12 0-.195.11-.22.16a.234.234 0 0 0-.226-.16c-.22 0-.337.271-.337.323 0 .022.022.022.024.022.018 0 .025-.005.027-.025.072-.22.21-.273.281-.273.04 0 .113.02.113.14 0 .064-.034.205-.113.498-.032.13-.106.22-.2.22-.012 0-.058 0-.103-.028.052-.013.099-.057.099-.114 0-.056-.047-.073-.08-.073-.06 0-.112.054-.112.12 0 .096.103.138.197.138.138 0 .211-.145.219-.157a.232.232 0 0 0 .226.157c.215 0 .335-.268.335-.322 0-.02-.02-.02-.027-.02-.017 0-.022.007-.027.022-.069.224-.21.276-.278.276-.081 0-.113-.07-.113-.138 0-.047.012-.094.034-.185zm0 0" style="fill:currentColor;fill-opacity:1;fill-rule:nonzero;stroke:none;stroke-width:1.07063;stroke-dasharray:none"/><path d="m5.507 8.543 5.437 4.8" style="fill:currentColor;stroke:currentColor;stroke-width:.264583;stroke-linecap:square;stroke-dasharray:none;stroke-opacity:1;marker-end:url(#a)"/></svg>