<?xml version="1.0" encoding="UTF-8" standalone="no"?>
<svg
   version="1.1"
   x="0px"
   y="0px"
   width="100"
   height="100"
   viewBox="0.21 -0.077 100 100"
   enable-background="new 0.21 -0.077 110 110"
   xml:space="preserve"
   id="svg4"
   sodipodi:docname="python.svg"
   inkscape:version="1.4 (e7c3feb1, 2024-10-09)"
   xmlns:inkscape="http://www.inkscape.org/namespaces/inkscape"
   xmlns:sodipodi="http://sodipodi.sourceforge.net/DTD/sodipodi-0.dtd"
   xmlns="http://www.w3.org/2000/svg"
   xmlns:svg="http://www.w3.org/2000/svg"><defs
     id="defs4"><marker
       style="overflow:visible"
       id="Triangle"
       refX="0"
       refY="0"
       orient="auto-start-reverse"
       inkscape:stockid="Triangle arrow"
       markerWidth="0.5"
       markerHeight="0.5"
       viewBox="0 0 1 1"
       inkscape:isstock="true"
       inkscape:collect="always"
       preserveAspectRatio="xMidYMid"><path
         transform="scale(0.5)"
         style="fill:context-stroke;fill-rule:evenodd;stroke:context-stroke;stroke-width:1pt"
         d="M 5.77,0 -2.88,5 V -5 Z"
         id="path135" /></marker></defs><sodipodi:namedview
     id="namedview4"
     pagecolor="#505050"
     bordercolor="#eeeeee"
     borderopacity="1"
     inkscape:showpageshadow="0"
     inkscape:pageopacity="0"
     inkscape:pagecheckerboard="0"
     inkscape:deskcolor="#505050"
     inkscape:zoom="4.147429"
     inkscape:cx="16.03403"
     inkscape:cy="46.414296"
     inkscape:window-width="1512"
     inkscape:window-height="916"
     inkscape:window-x="0"
     inkscape:window-y="38"
     inkscape:window-maximized="1"
     inkscape:current-layer="svg4" /><linearGradient
     id="SVGID_1_"
     gradientUnits="userSpaceOnUse"
     x1="63.815899"
     y1="56.682899"
     x2="118.4934"
     y2="1.8225"
     gradientTransform="matrix(0.31943244,0,0,-0.31943244,-9.7748884,29.644347)"> <stop
   offset="0"
   style="stop-color:#000000;stop-opacity:0.69999999;"
   id="stop1" /> <stop
   offset="1"
   style="stop-color:#000000;stop-opacity:1;"
   id="stop2" /></linearGradient><linearGradient
     id="SVGID_2_"
     gradientUnits="userSpaceOnUse"
     x1="97.044403"
     y1="21.632099"
     x2="155.6665"
     y2="-34.5308"
     gradientTransform="matrix(0.31943244,0,0,-0.31943244,-9.7748884,29.644347)"> <stop
   offset="0"
   style="stop-color:#000000;stop-opacity:0.80000001;"
   id="stop3" /> <stop
   offset="1"
   style="stop-color:#000000;stop-opacity:1;"
   id="stop4" /></linearGradient><path
     fill="url(#SVGID_1_)"
     d="m 24.826161,8.3991829 c -8.29598,0 -8.385101,3.2201981 -8.385101,3.8830211 0,1.005573 0,4.022932 0,4.022932 h 8.544817 v 1.207774 c 0,0 -8.896832,0 -11.938787,0 -2.539169,0 -5.7299791,1.543817 -5.7299791,8.385101 0,6.284195 2.4890176,8.714437 5.0010341,8.714437 0.745875,0 2.984777,0 2.984777,0 0,0 0,-3.119258 0,-4.192551 0,-1.754003 0.869176,-5.001034 4.921176,-5.001034 5.08217,0 6.379386,0 8.474862,0 1.246426,0 4.76146,-0.541758 4.76146,-4.601744 0,-4.297005 0,-5.714646 0,-7.736334 3.19e-4,-1.00717 -0.171855,-4.6816021 -8.634259,-4.6816021 z m -4.711628,2.7052731 c 0.850329,0 1.537428,0.68678 1.537428,1.537429 0,0.850009 -0.687099,1.537428 -1.537428,1.537428 -0.85033,0 -1.537429,-0.6871 -1.537429,-1.537428 0,-0.850649 0.687099,-1.537429 1.537429,-1.537429 z"
     id="path2"
     style="fill:#000000;stroke-width:0.319432;fill-opacity:1" /><path
     fill="url(#SVGID_2_)"
     d="m 24.945629,43.536751 c 8.292147,0 8.395323,-3.280891 8.395323,-3.883021 0,-1.005573 0,-4.022932 0,-4.022932 h -8.555039 v -1.207774 c 0,0 8.95433,0 11.938787,0 2.558334,0 5.729979,-1.582468 5.729979,-8.385101 0,-7.449803 -3.366179,-8.714437 -5.001034,-8.714437 -0.746194,0 -2.984777,0 -2.984777,0 0,0 0,3.263323 0,4.192551 0,1.754003 -0.840427,5.001035 -4.921176,5.001035 -5.08217,0 -6.221266,0 -8.475181,0 -1.243231,0 -4.76146,0.605643 -4.76146,4.601743 0,4.623785 0,5.834433 0,7.736334 0,1.670632 1.020906,4.681602 8.634578,4.681602 z m 4.711948,-2.705273 c -0.850329,0 -1.537429,-0.687099 -1.537429,-1.537428 0,-0.850329 0.68678,-1.537429 1.537429,-1.537429 0.85001,0 1.537428,0.6871 1.537428,1.537429 0,0.850329 -0.687418,1.537428 -1.537428,1.537428 z"
     id="path4"
     style="fill:#000000;stroke-width:0.319432;fill-opacity:1" /><rect
     style="fill:#000000;fill-opacity:0.3;stroke:#000000;stroke-width:1;stroke-dasharray:none;stroke-opacity:1"
     id="rect7"
     width="8.9163656"
     height="8.9163656"
     x="21.191053"
     y="59.686584" /><rect
     style="fill:#000000;fill-opacity:0.3;stroke:#000000;stroke-width:1;stroke-dasharray:none;stroke-opacity:1"
     id="rect8"
     width="8.9163656"
     height="8.9163656"
     x="30.107414"
     y="59.686584" /><rect
     style="fill:#000000;fill-opacity:0.3;stroke:#000000;stroke-width:1;stroke-dasharray:none;stroke-opacity:1"
     id="rect9"
     width="8.9163656"
     height="8.9163656"
     x="39.023785"
     y="59.686584" /><rect
     style="fill:#000000;fill-opacity:0.3;stroke:#000000;stroke-width:1;stroke-dasharray:none;stroke-opacity:1"
     id="rect10"
     width="8.9163656"
     height="8.9163656"
     x="47.940151"
     y="59.686584" /><rect
     style="fill:#000000;fill-opacity:0.3;stroke:#000000;stroke-width:1;stroke-dasharray:none;stroke-opacity:1"
     id="rect11"
     width="8.9163656"
     height="8.9163656"
     x="56.856518"
     y="59.686584" /><path
     style="fill:none;fill-opacity:0.3;stroke:#000000;stroke-width:1.99399;stroke-dasharray:none;stroke-opacity:1"
     d="m 53.119789,14.65843 9.499107,-2.5e-4"
     id="path13"
     sodipodi:nodetypes="cc" /><path
     style="fill:none;fill-opacity:0.3;stroke:#000000;stroke-width:1.99399;stroke-dasharray:none;stroke-opacity:1"
     d="M 63.933182,14.65843 69.4443,14.65818"
     id="path14"
     sodipodi:nodetypes="cc" /><path
     style="fill:none;fill-opacity:0.3;stroke:#000000;stroke-width:1.99399;stroke-dasharray:none;stroke-opacity:0.3"
     d="m 70.758605,14.658664 3.02487,-3.58e-4"
     id="path15"
     sodipodi:nodetypes="cc" /><path
     style="fill:none;fill-opacity:0.3;stroke:#000000;stroke-width:1.99399;stroke-dasharray:none;stroke-opacity:1"
     d="m 75.097747,14.65861 21.463081,-2.5e-4"
     id="path16"
     sodipodi:nodetypes="cc" /><path
     style="fill:none;fill-opacity:0.3;stroke:#000000;stroke-width:1.99399;stroke-dasharray:none;stroke-opacity:1"
     d="m 53.119966,18.580746 17.475091,-2.5e-4"
     id="path17"
     sodipodi:nodetypes="cc" /><path
     style="fill:none;fill-opacity:0.3;stroke:#000000;stroke-width:1.99399;stroke-dasharray:none;stroke-opacity:1"
     d="m 71.909227,18.580746 17.47509,-2.5e-4"
     id="path18"
     sodipodi:nodetypes="cc" /><path
     style="fill:none;fill-opacity:0.419238;stroke:#000000;stroke-width:1.99399;stroke-dasharray:none;stroke-opacity:0.299456"
     d="m 47.899516,10.736475 9.499108,-2.51e-4"
     id="path11"
     sodipodi:nodetypes="cc" /><path
     style="fill:none;fill-opacity:0.3;stroke:#000000;stroke-width:1.99399;stroke-dasharray:none;stroke-opacity:1"
     d="m 58.712805,10.736475 21.463082,-2.51e-4"
     id="path12"
     sodipodi:nodetypes="cc" /><path
     style="fill:none;fill-opacity:0.3;stroke:#000000;stroke-width:1.99399;stroke-dasharray:none;stroke-opacity:0.3"
     d="m 53.119966,22.503061 5.511118,-2.51e-4"
     id="path19"
     sodipodi:nodetypes="cc" /><path
     style="fill:none;fill-opacity:0.3;stroke:#000000;stroke-width:1.99399;stroke-dasharray:none;stroke-opacity:1"
     d="M 59.945253,22.503061 77.420344,22.50281"
     id="path20"
     sodipodi:nodetypes="cc" /><path
     style="fill:none;fill-opacity:0.3;stroke:#000000;stroke-width:1.99399;stroke-dasharray:none;stroke-opacity:1"
     d="m 53.119974,26.425377 9.499108,-2.53e-4"
     id="path21"
     sodipodi:nodetypes="cc" /><path
     style="fill:none;fill-opacity:0.3;stroke:#000000;stroke-width:1.99399;stroke-dasharray:none;stroke-opacity:0.3"
     d="m 63.933244,26.425377 9.499108,-2.53e-4"
     id="path22"
     sodipodi:nodetypes="cc" /><path
     style="fill:none;fill-opacity:0.3;stroke:#000000;stroke-width:1.99399;stroke-dasharray:none;stroke-opacity:1"
     d="m 74.746515,26.425377 5.511117,-2.53e-4"
     id="path23"
     sodipodi:nodetypes="cc" /><path
     style="fill:none;fill-opacity:0.419238;stroke:#000000;stroke-width:1.99399;stroke-dasharray:none;stroke-opacity:0.299456"
     d="m 47.899516,33.507922 5.511116,-2.51e-4"
     id="path24"
     sodipodi:nodetypes="cc" /><path
     style="fill:none;fill-opacity:0.3;stroke:#000000;stroke-width:1.99399;stroke-dasharray:none;stroke-opacity:1"
     d="m 54.72479,33.507922 13.487099,-2.51e-4"
     id="path25"
     sodipodi:nodetypes="cc" /><path
     style="fill:none;fill-opacity:0.3;stroke:#000000;stroke-width:1.99399;stroke-dasharray:none;stroke-opacity:1"
     d="m 53.119789,37.429877 9.499107,-2.51e-4"
     id="path26"
     sodipodi:nodetypes="cc" /><path
     style="fill:none;fill-opacity:0.3;stroke:#000000;stroke-width:1.99399;stroke-dasharray:none;stroke-opacity:1"
     d="m 53.08438,41.351833 6.667616,-2.5e-4"
     id="path27"
     sodipodi:nodetypes="cc" /><path
     style="fill:none;fill-opacity:0.3;stroke:#000000;stroke-width:1.99399;stroke-dasharray:none;stroke-opacity:1"
     d="m 61.066162,41.351833 6.667617,-2.5e-4"
     id="path28"
     sodipodi:nodetypes="cc" /><path
     style="fill:none;fill-opacity:0.3;stroke:#000000;stroke-width:1.99399;stroke-dasharray:none;stroke-opacity:1"
     d="m 69.047945,41.351833 15.162088,-2.5e-4"
     id="path29"
     sodipodi:nodetypes="cc" /><path
     style="fill:none;fill-opacity:0.419238;stroke:#000000;stroke-width:1.99399;stroke-dasharray:none;stroke-opacity:0.299456"
     d="m 58.339022,45.273789 2.679627,-2.51e-4"
     id="path30"
     sodipodi:nodetypes="cc" /><path
     style="fill:none;fill-opacity:0.419238;stroke:#000000;stroke-width:1.99399;stroke-dasharray:none;stroke-opacity:1"
     d="m 62.332824,45.273538 11.174098,-2.51e-4"
     id="path31"
     sodipodi:nodetypes="cc" /><path
     style="fill:none;fill-opacity:0.419238;stroke:#000000;stroke-width:1.99399;stroke-dasharray:none;stroke-opacity:1"
     d="m 74.821114,45.273538 8.342607,-2.51e-4"
     id="path32"
     sodipodi:nodetypes="cc" /><path
     style="fill:none;fill-opacity:0.419238;stroke:#000000;stroke-width:1.99399;stroke-dasharray:none;stroke-opacity:1"
     d="m 84.477897,45.273538 2.679627,-2.51e-4"
     id="path33"
     sodipodi:nodetypes="cc" /><path
     style="fill:none;fill-opacity:0.419238;stroke:#000000;stroke-width:1;stroke-dasharray:none;stroke-opacity:1;marker-end:url(#Triangle)"
     d="m 25.649236,70.256247 v 7.173409"
     id="path34"
     sodipodi:nodetypes="cc" /><rect
     style="fill:#000000;fill-opacity:0.3;stroke:#000000;stroke-width:1;stroke-dasharray:none;stroke-opacity:1"
     id="rect34"
     width="8.9163656"
     height="8.9163656"
     x="21.191053"
     y="80.85849" /><path
     style="fill:none;fill-opacity:0.419238;stroke:#000000;stroke-width:1;stroke-dasharray:none;stroke-opacity:1;marker-end:url(#Triangle)"
     d="m 43.481965,70.256247 v 7.173409"
     id="path35"
     sodipodi:nodetypes="cc" /><rect
     style="fill:#000000;fill-opacity:0.3;stroke:#000000;stroke-width:1;stroke-dasharray:none;stroke-opacity:1"
     id="rect35"
     width="8.9163656"
     height="8.9163656"
     x="39.023785"
     y="80.85849" /></svg>
