<svg xmlns="http://www.w3.org/2000/svg" xml:space="preserve" width="100" height="100" viewBox="0.21 -0.077 100 100"><defs><marker id="c" markerHeight=".5" markerWidth=".5" orient="auto-start-reverse" preserveAspectRatio="xMidYMid" refX="0" refY="0" style="overflow:visible" viewBox="0 0 1 1"><path d="m5.77 0-8.65 5V-5Z" style="fill:context-stroke;fill-rule:evenodd;stroke:context-stroke;stroke-width:1pt" transform="scale(.5)"/></marker></defs><linearGradient id="a" x1="63.816" x2="118.493" y1="56.683" y2="1.823" gradientTransform="matrix(.31943 0 0 -.31943 -9.775 29.644)" gradientUnits="userSpaceOnUse"><stop offset="0" style="stop-color:#000;stop-opacity:.69999999"/><stop offset="1" style="stop-color:#000;stop-opacity:1"/></linearGradient><linearGradient id="b" x1="97.044" x2="155.667" y1="21.632" y2="-34.531" gradientTransform="matrix(.31943 0 0 -.31943 -9.775 29.644)" gradientUnits="userSpaceOnUse"><stop offset="0" style="stop-color:#000;stop-opacity:.80000001"/><stop offset="1" style="stop-color:#000;stop-opacity:1"/></linearGradient><path fill="url(#a)" d="M24.826 8.4c-8.296 0-8.385 3.22-8.385 3.882v4.023h8.545v1.208H13.047c-2.54 0-5.73 1.544-5.73 8.385 0 6.284 2.49 8.714 5.001 8.714h2.985V30.42c0-1.754.87-5.001 4.921-5.001H28.7c1.246 0 4.761-.542 4.761-4.602v-7.736c0-1.007-.171-4.682-8.634-4.682m-4.711 2.704c.85 0 1.537.687 1.537 1.538 0 .85-.687 1.537-1.537 1.537s-1.538-.687-1.538-1.537.687-1.538 1.538-1.538" style="fill:currentColor;stroke-width:.319432;fill-opacity:1"/><path fill="url(#b)" d="M24.946 43.537c8.292 0 8.395-3.281 8.395-3.883V35.63h-8.555v-1.208h11.939c2.558 0 5.73-1.582 5.73-8.385 0-7.45-3.366-8.715-5.001-8.715h-2.985v4.193c0 1.754-.84 5.001-4.921 5.001h-8.475c-1.244 0-4.762.606-4.762 4.602v7.736c0 1.67 1.021 4.682 8.635 4.682m4.712-2.706c-.85 0-1.538-.687-1.538-1.537s.687-1.537 1.538-1.537c.85 0 1.537.687 1.537 1.537s-.687 1.537-1.537 1.537" style="fill:currentColor;stroke-width:.319432;fill-opacity:1"/><path d="M21.191 59.687h8.916v8.916h-8.916z" style="fill:currentColor;fill-opacity:.3;stroke:currentColor;stroke-width:1;stroke-dasharray:none;stroke-opacity:1"/><path d="M30.107 59.687h8.916v8.916h-8.916zM39.024 59.687h8.916v8.916h-8.916zM47.94 59.687h8.916v8.916H47.94zM56.857 59.687h8.916v8.916h-8.916z" style="fill:currentColor;fill-opacity:.3;stroke:currentColor;stroke-width:1;stroke-dasharray:none;stroke-opacity:1"/><path d="M53.12 14.658h9.499M63.933 14.658h5.511" style="fill:none;fill-opacity:.3;stroke:currentColor;stroke-width:1.99399;stroke-dasharray:none;stroke-opacity:1"/><path d="M70.759 14.659h3.024" style="fill:none;fill-opacity:.3;stroke:currentColor;stroke-width:1.99399;stroke-dasharray:none;stroke-opacity:.3"/><path d="M75.098 14.659H96.56M53.12 18.58h17.475M71.91 18.58h17.474" style="fill:none;fill-opacity:.3;stroke:currentColor;stroke-width:1.99399;stroke-dasharray:none;stroke-opacity:1"/><path d="M47.9 10.736h9.499" style="fill:none;fill-opacity:.419238;stroke:currentColor;stroke-width:1.99399;stroke-dasharray:none;stroke-opacity:.299456"/><path d="M58.713 10.736h21.463" style="fill:none;fill-opacity:.3;stroke:currentColor;stroke-width:1.99399;stroke-dasharray:none;stroke-opacity:1"/><path d="M53.12 22.503h5.511" style="fill:none;fill-opacity:.3;stroke:currentColor;stroke-width:1.99399;stroke-dasharray:none;stroke-opacity:.3"/><path d="M59.945 22.503H77.42M53.12 26.425h9.5" style="fill:none;fill-opacity:.3;stroke:currentColor;stroke-width:1.99399;stroke-dasharray:none;stroke-opacity:1"/><path d="M63.933 26.425h9.5" style="fill:none;fill-opacity:.3;stroke:currentColor;stroke-width:1.99399;stroke-dasharray:none;stroke-opacity:.3"/><path d="M74.747 26.425h5.51" style="fill:none;fill-opacity:.3;stroke:currentColor;stroke-width:1.99399;stroke-dasharray:none;stroke-opacity:1"/><path d="M47.9 33.508h5.51" style="fill:none;fill-opacity:.419238;stroke:currentColor;stroke-width:1.99399;stroke-dasharray:none;stroke-opacity:.299456"/><path d="M54.725 33.508h13.487M53.12 37.43h9.499M53.084 41.352h6.668M61.066 41.352h6.668M69.048 41.352H84.21" style="fill:none;fill-opacity:.3;stroke:currentColor;stroke-width:1.99399;stroke-dasharray:none;stroke-opacity:1"/><path d="M58.339 45.274h2.68" style="fill:none;fill-opacity:.419238;stroke:currentColor;stroke-width:1.99399;stroke-dasharray:none;stroke-opacity:.299456"/><path d="M62.333 45.274h11.174M74.821 45.274h8.343M84.478 45.274h2.68" style="fill:none;fill-opacity:.419238;stroke:currentColor;stroke-width:1.99399;stroke-dasharray:none;stroke-opacity:1"/><path d="M25.65 70.256v7.174" style="fill:none;fill-opacity:.419238;stroke:currentColor;stroke-width:1;stroke-dasharray:none;stroke-opacity:1;marker-end:url(#c)"/><path d="M21.191 80.858h8.916v8.916h-8.916z" style="fill:currentColor;fill-opacity:.3;stroke:currentColor;stroke-width:1;stroke-dasharray:none;stroke-opacity:1"/><path d="M43.482 70.256v7.174" style="fill:none;fill-opacity:.419238;stroke:currentColor;stroke-width:1;stroke-dasharray:none;stroke-opacity:1;marker-end:url(#c)"/><path d="M39.024 80.858h8.916v8.916h-8.916z" style="fill:currentColor;fill-opacity:.3;stroke:currentColor;stroke-width:1;stroke-dasharray:none;stroke-opacity:1"/></svg>
