<svg xmlns="http://www.w3.org/2000/svg" xml:space="preserve" width="100" height="100" viewBox="0 0 26.458 26.458"><defs><clipPath id="a"><path d="M73 190v13.563h22V190H73z"/></clipPath><clipPath id="b"><path d="M73 190v13.563h22V190H73z"/></clipPath><clipPath id="c"><path d="M73 190v13.563h15V190H73z"/></clipPath><clipPath id="d"><path d="M73 190v13.563h15V190H73z"/></clipPath><clipPath id="e"><path d="M74 13v351h360V13H74z"/></clipPath><clipPath id="f"><path d="M73 190v13.563h15V190H73z"/></clipPath><clipPath id="g"><path d="M74 190v14h21v-14H74z"/></clipPath><clipPath id="k"><path d="M74 190v14h21v-14H74z"/></clipPath><clipPath id="h"><path d="M73 190v14h15v-14H73z"/></clipPath><clipPath id="i"><path d="M73 190v14h15v-14H73z"/></clipPath><clipPath id="j"><path d="M73 190v14h15v-14H73z"/></clipPath></defs><path d="M4.373 15.015h3.105v4.152H4.373zM4.382 16.347h3.087M5.925 19.167v2.697M5.925 15.015v-2.044M5.163 12.9h1.525M5.163 21.864h1.525M9.292 15.276h3.083v4.94H9.292zM9.299 18.767h3.087M10.834 20.227l.008 2.633M10.834 12.449v2.827M10.07 12.378h1.527M10.075 22.93H11.6M2.304 12.32v11.852M14.155 24.172H2.304M2.304 24.172H1.72M2.304 19.167H1.72M2.304 14.162H1.72M5.926 24.756v-.584M10.838 24.756v-.584" style="fill:currentColor;fill-opacity:.3;stroke:currentColor;stroke-width:.26458333;stroke-linecap:square;stroke-dasharray:none"/><path d="m14.868 19.942 10.322-6.479" style="fill:currentColor;fill-opacity:.3;stroke:currentColor;stroke-width:.264583;stroke-linecap:square;stroke-dasharray:none"/><ellipse cx="18.305" cy="19.756" rx=".23" ry=".243" style="fill:currentColor;fill-opacity:.3;stroke:currentColor;stroke-width:.264583;stroke-linecap:square;stroke-dasharray:none"/><ellipse cx="19.699" cy="18.407" rx=".23" ry=".243" style="fill:currentColor;fill-opacity:.3;stroke:currentColor;stroke-width:.264583;stroke-linecap:square;stroke-dasharray:none"/><ellipse cx="16.474" cy="18.064" rx=".23" ry=".243" style="fill:currentColor;fill-opacity:.3;stroke:currentColor;stroke-width:.264583;stroke-linecap:square;stroke-dasharray:none"/><ellipse cx="19.369" cy="13.862" rx=".23" ry=".243" style="fill:currentColor;fill-opacity:.3;stroke:currentColor;stroke-width:.264583;stroke-linecap:square;stroke-dasharray:none"/><ellipse cx="23.024" cy="17.045" rx=".23" ry=".243" style="fill:currentColor;fill-opacity:.3;stroke:currentColor;stroke-width:.264583;stroke-linecap:square;stroke-dasharray:none"/><ellipse cx="21.323" cy="14.348" rx=".23" ry=".243" style="fill:currentColor;fill-opacity:.3;stroke:currentColor;stroke-width:.264583;stroke-linecap:square;stroke-dasharray:none"/><ellipse cx="22.047" cy="18.75" rx=".23" ry=".243" style="fill:currentColor;fill-opacity:.3;stroke:currentColor;stroke-width:.264583;stroke-linecap:square;stroke-dasharray:none"/><ellipse cx="25.017" cy="14.9" rx=".23" ry=".243" style="fill:currentColor;fill-opacity:.3;stroke:currentColor;stroke-width:.264583;stroke-linecap:square;stroke-dasharray:none"/><g style="fill:none;fill-opacity:.3;stroke:currentColor;stroke-width:.735565;stroke-dasharray:none;stroke-opacity:.5"><g clip-path="url(#a)" font-size="10" style="fill:none;fill-opacity:.3;stroke:currentColor;stroke-width:.531006;stroke-dasharray:none;stroke-opacity:.5" transform="matrix(.49068 0 0 .50597 -101.167 91.14)"><text x="74" y="137" style="font-size:10px;font-family:SVGTimes;fill:none;fill-opacity:.3;stroke:currentColor;stroke-width:.531006;stroke-dasharray:none;stroke-opacity:.5">-</text><text x="80.5" y="137" style="font-size:10px;font-family:&quot;Times New Roman&quot;;fill:none;fill-opacity:.3;stroke:currentColor;stroke-width:.531006;stroke-dasharray:none;stroke-opacity:.5">3</text></g><g clip-path="url(#b)" font-size="10" style="fill:none;fill-opacity:.3;stroke:currentColor;stroke-width:.531006;stroke-dasharray:none;stroke-opacity:.5" transform="matrix(.49068 0 0 .50597 -72.998 91.14)"><text x="74" y="137" style="font-size:10px;font-family:SVGTimes;fill:none;fill-opacity:.3;stroke:currentColor;stroke-width:.531006;stroke-dasharray:none;stroke-opacity:.5">-</text><text x="80.5" y="137" style="font-size:10px;font-family:&quot;Times New Roman&quot;;fill:none;fill-opacity:.3;stroke:currentColor;stroke-width:.531006;stroke-dasharray:none;stroke-opacity:.5">2</text></g><g clip-path="url(#c)" font-size="10" style="fill:none;fill-opacity:.3;stroke:currentColor;stroke-width:.531006;stroke-dasharray:none;stroke-opacity:.5" transform="matrix(.49068 0 0 .50597 -44.829 91.14)"><text x="74" y="137" style="font-size:10px;font-family:SVGTimes;fill:none;fill-opacity:.3;stroke:currentColor;stroke-width:.531006;stroke-dasharray:none;stroke-opacity:.5">-</text><text x="80.5" y="137" style="font-size:10px;font-family:&quot;Times New Roman&quot;;fill:none;fill-opacity:.3;stroke:currentColor;stroke-width:.531006;stroke-dasharray:none;stroke-opacity:.5">1</text></g><g clip-path="url(#d)" style="fill:none;fill-opacity:.3;stroke:currentColor;stroke-width:.531006;stroke-dasharray:none;stroke-opacity:.5" transform="matrix(.49068 0 0 .50597 -101.793 91.152)"><path d="M265 124v-2.437M276.438 124v-2.437M287.938 124v-2.437M299.438 124v-2.437M310.938 124v-4" style="fill:none;fill-opacity:.3;stroke:currentColor;stroke-width:.531006;stroke-dasharray:none;stroke-opacity:.5"/></g><g clip-path="url(#f)" style="fill:none;fill-opacity:.3;stroke:currentColor;stroke-width:.531006;stroke-dasharray:none;stroke-opacity:.5" transform="matrix(.49068 0 0 .50597 -101.793 91.152)"><path d="M322.375 124v-2.437M333.875 124v-2.437M345.375 124v-2.437M356.813 124v-2.437M368.313 124v-4" style="fill:none;fill-opacity:.3;stroke:currentColor;stroke-width:.531006;stroke-dasharray:none;stroke-opacity:.5"/></g><g clip-path="url(#g)" style="fill:none;fill-opacity:.3;stroke:currentColor;stroke-width:.531006;stroke-dasharray:none;stroke-opacity:.5" transform="matrix(.49068 0 0 .50597 -101.793 91.152)"><path d="M379.813 124v-2.437M391.25 124v-2.437M402.75 124v-2.437M414.25 124v-2.437M425.75 124v-4" style="fill:none;fill-opacity:.3;stroke:currentColor;stroke-width:.531006;stroke-dasharray:none;stroke-opacity:.5"/></g><g clip-path="url(#h)" style="fill:none;fill-opacity:.3;stroke:currentColor;stroke-width:.531006;stroke-dasharray:none;stroke-opacity:.5" transform="matrix(.49068 0 0 .50597 -101.793 91.152)"><path d="M253.5 219.5h2.375M253.5 212.688h2.375M253.5 205.875h2.375M253.5 199h2.375M253.5 192.188h4" style="fill:none;fill-opacity:.3;stroke:currentColor;stroke-width:.531006;stroke-dasharray:none;stroke-opacity:.5"/></g><g clip-path="url(#i)" style="fill:none;fill-opacity:.3;stroke:currentColor;stroke-width:.531006;stroke-dasharray:none;stroke-opacity:.5" transform="matrix(.49068 0 0 .50597 -101.793 91.152)"><path d="M253.5 185.375h2.375M253.5 178.563h2.375M253.5 171.75h2.375M253.5 164.938h2.375M253.5 158.063h4" style="fill:none;fill-opacity:.3;stroke:currentColor;stroke-width:.531006;stroke-dasharray:none;stroke-opacity:.5"/></g><g clip-path="url(#j)" style="fill:none;fill-opacity:.3;stroke:currentColor;stroke-width:.531006;stroke-dasharray:none;stroke-opacity:.5" transform="matrix(.49068 0 0 .50597 -101.793 91.152)"><path d="M253.5 151.25h2.375M253.5 144.438h2.375M253.5 137.625h2.375M253.5 130.813h2.375M253.5 124h4" style="fill:none;fill-opacity:.3;stroke:currentColor;stroke-width:.531006;stroke-dasharray:none;stroke-opacity:.5"/></g><g clip-path="url(#a)" style="fill:none;fill-opacity:.3;stroke:currentColor;stroke-width:.735565;stroke-dasharray:none;stroke-opacity:.5" transform="translate(162.629 93.09) scale(.3597)"><path d="M83.938 124v-2.437M94.5 124v-4" style="fill:none;fill-opacity:.3;stroke:currentColor;stroke-width:.735565;stroke-dasharray:none;stroke-opacity:.5"/></g><g clip-path="url(#b)" style="fill:none;fill-opacity:.3;stroke:currentColor;stroke-width:.735565;stroke-dasharray:none;stroke-opacity:.5" transform="translate(162.629 93.09) scale(.3597)"><path d="M105.125 124v-2.437M115.75 124v-2.437M126.313 124v-2.437M136.938 124v-2.437M147.5 124v-4" style="fill:none;fill-opacity:.3;stroke:currentColor;stroke-width:.735565;stroke-dasharray:none;stroke-opacity:.5"/></g><g clip-path="url(#c)" style="fill:none;fill-opacity:.3;stroke:currentColor;stroke-width:.735565;stroke-dasharray:none;stroke-opacity:.5" transform="translate(162.629 93.09) scale(.3597)"><path d="M158.125 124v-2.437M168.688 124v-2.437M179.313 124v-2.437M189.938 124v-2.437M200.5 124v-4" style="fill:none;fill-opacity:.3;stroke:currentColor;stroke-width:.735565;stroke-dasharray:none;stroke-opacity:.5"/></g><g clip-path="url(#d)" style="fill:none;fill-opacity:.3;stroke:currentColor;stroke-width:.735565;stroke-dasharray:none;stroke-opacity:.5" transform="translate(162.629 93.09) scale(.3597)"><path d="M211.125 124v-2.437M221.688 124v-2.437M232.313 124v-2.437M242.875 124v-2.437M253.5 124v-4" style="fill:none;fill-opacity:.3;stroke:currentColor;stroke-width:.735565;stroke-dasharray:none;stroke-opacity:.5"/></g><g clip-path="url(#f)" style="fill:none;fill-opacity:.3;stroke:currentColor;stroke-width:.735565;stroke-dasharray:none;stroke-opacity:.5" transform="translate(245.357 93.08) scale(.3597)"><text x="74" y="137" font-size="10" style="font-size:10px;font-family:&quot;Times New Roman&quot;;fill:none;fill-opacity:.3;stroke:currentColor;stroke-width:.735565;stroke-dasharray:none;stroke-opacity:.5">1</text></g><g clip-path="url(#g)" style="fill:none;fill-opacity:.3;stroke:currentColor;stroke-width:.735565;stroke-dasharray:none;stroke-opacity:.5" transform="translate(264.419 93.08) scale(.3597)"><text x="74" y="137" font-size="10" style="font-size:10px;font-family:&quot;Times New Roman&quot;;fill:none;fill-opacity:.3;stroke:currentColor;stroke-width:.735565;stroke-dasharray:none;stroke-opacity:.5">2</text></g><g clip-path="url(#k)" style="fill:none;fill-opacity:.3;stroke:currentColor;stroke-width:.735565;stroke-dasharray:none;stroke-opacity:.5" transform="translate(283.48 93.08) scale(.3597)"><text x="74" y="137" font-size="10" style="font-size:10px;font-family:&quot;Times New Roman&quot;;fill:none;fill-opacity:.3;stroke:currentColor;stroke-width:.735565;stroke-dasharray:none;stroke-opacity:.5">3</text></g><g clip-path="url(#h)" font-size="10" style="fill:none;fill-opacity:.3;stroke:currentColor;stroke-width:.735565;stroke-dasharray:none;stroke-opacity:.5" transform="translate(221.8 121.749) scale(.3597)"><text x="74" y="137" style="font-size:10px;font-family:SVGTimes;fill:none;fill-opacity:.3;stroke:currentColor;stroke-width:.735565;stroke-dasharray:none;stroke-opacity:.5">-</text><text x="80.5" y="137" style="font-size:10px;font-family:&quot;Times New Roman&quot;;fill:none;fill-opacity:.3;stroke:currentColor;stroke-width:.735565;stroke-dasharray:none;stroke-opacity:.5">3</text></g><g clip-path="url(#i)" font-size="10" style="fill:none;fill-opacity:.3;stroke:currentColor;stroke-width:.735565;stroke-dasharray:none;stroke-opacity:.5" transform="translate(221.8 111.113) scale(.3597)"><text x="74" y="137" style="font-size:10px;font-family:SVGTimes;fill:none;fill-opacity:.3;stroke:currentColor;stroke-width:.735565;stroke-dasharray:none;stroke-opacity:.5">-</text><text x="80.5" y="137" style="font-size:10px;font-family:&quot;Times New Roman&quot;;fill:none;fill-opacity:.3;stroke:currentColor;stroke-width:.735565;stroke-dasharray:none;stroke-opacity:.5">2</text></g><g clip-path="url(#j)" font-size="10" style="fill:none;fill-opacity:.3;stroke:currentColor;stroke-width:.735565;stroke-dasharray:none;stroke-opacity:.5" transform="translate(221.8 100.478) scale(.3597)"><text x="74" y="137" style="font-size:10px;font-family:SVGTimes;fill:none;fill-opacity:.3;stroke:currentColor;stroke-width:.735565;stroke-dasharray:none;stroke-opacity:.5">-</text><text x="80.5" y="137" style="font-size:10px;font-family:&quot;Times New Roman&quot;;fill:none;fill-opacity:.3;stroke:currentColor;stroke-width:.735565;stroke-dasharray:none;stroke-opacity:.5">1</text></g></g><path d="M23.181 8.943c-1.834-.019-1.602-.053-2.09-.088-2.708-.191-3.924-1.826-4.988-3.356-1.35-1.94-2.351-3.858-3.579-3.858-1.228 0-2.259 1.917-3.64 3.858-1.09 1.53-2.333 3.165-5.043 3.356-.458.032-.454.065-2.008.084" style="display:inline;fill:none;fill-opacity:1;stroke:currentColor;stroke-width:.264583;stroke-dasharray:none"/><path d="M11.833 1.692h1.968v7.252h-1.968zM13.802 3.156h1.968v5.788h-1.968zM15.77 7.156h1.968v1.788H15.77zM17.739 6.627h1.968v2.317h-1.968zM9.865 2.221h1.968v6.723H9.865zM7.897 5.396h1.968v3.548H7.897zM5.928 6.984h1.968v1.961H5.928z" style="fill:currentColor;fill-opacity:.3;stroke:currentColor;stroke-width:.264583;stroke-linecap:square;stroke-dasharray:none;stroke-dashoffset:0;stroke-opacity:1"/></svg>
